<svg xmlns="http://www.w3.org/2000/svg" width="20" height="20" viewBox="0 0 20 20"><g><g><path fill="#aeaeae" d="M17.615 8.848c0 4.856-3.95 8.807-8.807 8.807S0 13.705 0 8.848 3.951.04 8.808.04c4.856 0 8.807 3.951 8.807 8.808zm-1.626 0c0-3.96-3.222-7.182-7.181-7.182-3.96 0-7.182 3.222-7.182 7.182 0 3.96 3.222 7.181 7.182 7.181 3.96 0 7.181-3.222 7.181-7.181z"/></g><g><path fill="#aeaeae" d="M19.76 18.65l-4.662-4.662a.813.813 0 1 0-1.15 1.15l4.661 4.661a.81.81 0 0 0 1.15 0 .813.813 0 0 0 0-1.15z"/></g></g></svg>